<?xml version="1.0" standalone="no"?>
<!DOCTYPE svg PUBLIC "-//W3C//DTD SVG 20010904//EN"
 "http://www.w3.org/TR/2001/REC-SVG-20010904/DTD/svg10.dtd">
<svg version="1.0" xmlns="http://www.w3.org/2000/svg"
 width="500.000000pt" height="500.000000pt" viewBox="0 0 500.000000 500.000000"
 preserveAspectRatio="xMidYMid meet">
<metadata>
Created by potrace 1.14, written by Peter Selinger 2001-2017
</metadata>
<g transform="translate(0.000000,500.000000) scale(0.100000,-0.100000)"
fill="#000000" stroke="none">
<path d="M0 2500 l0 -2500 2500 0 2500 0 0 2500 0 2500 -2500 0 -2500 0 0
-2500z m1974 1099 c128 -25 282 -151 345 -282 17 -36 31 -69 31 -73 0 -5 -88
-54 -195 -109 l-194 -100 -114 57 -114 56 -197 -100 c-109 -55 -200 -97 -203
-94 -3 2 -10 39 -16 80 -26 179 70 387 225 488 136 88 260 111 432 77z m1174
-576 l102 -54 0 -250 0 -249 -29 0 c-63 0 -61 -8 -61 229 l0 218 -282 145
-283 146 -267 -137 c-147 -75 -263 -140 -259 -144 5 -4 122 51 261 122 140 72
258 131 263 131 6 0 131 -62 278 -137 l269 -138 0 -212 c0 -183 -2 -213 -15
-213 -13 0 -15 29 -15 204 l0 203 -257 133 -258 132 -220 -112 c-121 -63 -228
-119 -238 -126 -17 -11 -11 -16 52 -49 l71 -37 0 -134 0 -134 -40 0 -39 0 -3
105 -3 106 -221 113 -220 114 -222 -115 -222 -115 0 -173 0 -173 -36 -21 c-19
-12 -39 -21 -45 -21 -6 0 -8 85 -7 223 l3 222 265 136 264 137 114 -57 114
-56 316 162 317 161 225 -115 c124 -64 271 -140 328 -170z m-1198 -158 l210
-106 0 -99 c0 -93 -1 -100 -20 -100 -19 0 -20 7 -20 93 l0 92 -194 98 -194 98
-196 -101 -196 -102 0 -148 c0 -122 -3 -149 -15 -154 -13 -5 -15 17 -15 159
l0 164 203 104 c111 58 208 106 215 106 7 1 107 -46 222 -104z m610 -110 l0
-76 -72 3 -73 3 -3 73 -3 72 76 0 75 0 0 -75z m218 3 l-3 -73 -72 -3 -73 -3 0
76 0 75 75 0 76 0 -3 -72z m-1068 -73 l0 -55 -55 0 -55 0 0 55 0 55 55 0 55 0
0 -55z m160 0 l0 -55 -55 0 -55 0 0 55 0 55 55 0 55 0 0 -55z m690 -100 l0
-45 -44 0 c-24 0 -58 3 -75 6 -27 6 -31 11 -31 39 0 17 3 35 7 38 3 4 37 7 75
7 l68 0 0 -45z m215 -10 c0 -41 -3 -50 -17 -49 -10 0 -43 1 -73 2 l-55 2 0 50
0 51 73 -3 72 -3 0 -50z m-1065 -14 c0 -25 -4 -29 -37 -35 -66 -10 -73 -9 -73
22 0 38 5 42 62 42 46 0 48 -1 48 -29z m157 13 c8 -22 -14 -34 -64 -34 -39 0
-43 2 -43 25 0 23 3 25 50 25 37 0 52 -4 57 -16z m763 -99 c236 -19 673 -75
905 -115 182 -31 172 -32 -115 -9 -213 16 -819 23 -1007 10 -551 -36 -901
-135 -1083 -307 -93 -88 -123 -151 -130 -274 l-5 -95 -22 35 c-40 64 -82 163
-94 218 -66 319 201 505 793 552 151 12 517 4 758 -15z m1113 -152 c-7 -2 -19
-2 -25 0 -7 3 -2 5 12 5 14 0 19 -2 13 -5z m-673 -22 c54 -5 -7 -8 -215 -14
-592 -14 -998 -77 -1330 -205 -78 -30 -79 -30 -50 -7 123 101 461 198 780 224
72 6 148 13 170 15 54 6 551 -4 645 -13z m-1014 -438 l49 -68 3 68 c3 67 3 67
32 67 l30 0 0 -115 0 -115 -29 0 c-25 0 -37 11 -78 66 l-48 66 -3 -66 c-3 -66
-3 -66 -32 -66 l-30 0 0 115 0 115 28 0 c23 0 37 -12 78 -67z m348 57 c30 -11
32 -19 12 -46 -12 -15 -17 -17 -27 -6 -14 13 -67 16 -85 4 -55 -37 -23 -128
43 -120 23 2 29 8 31 36 3 26 7 32 28 32 22 0 24 -4 24 -48 0 -43 -3 -50 -25
-60 -37 -17 -102 -15 -136 5 -29 17 -59 67 -59 98 0 31 32 85 59 100 30 17 99
19 135 5z m336 -105 l0 -115 -30 0 -30 0 0 115 0 115 30 0 30 0 0 -115z m166
48 l49 -68 3 68 c3 67 3 67 32 67 l30 0 0 -115 0 -115 -29 0 c-25 0 -37 11
-78 66 l-48 66 -3 -66 c-3 -66 -3 -66 -32 -66 l-30 0 0 115 0 115 28 0 c23 0
37 -12 78 -67z m346 51 l31 -16 -22 -21 c-16 -17 -23 -19 -33 -9 -7 7 -27 12
-45 12 -59 0 -81 -70 -36 -115 16 -16 38 -16 89 0 15 5 23 2 28 -12 17 -44
-81 -70 -144 -38 -74 38 -78 150 -8 199 29 21 100 20 140 0z m-719 -176 c6
-18 -21 -68 -37 -68 -9 0 -12 12 -11 38 1 20 3 38 4 40 4 8 40 0 44 -10z m830
0 c7 -21 -4 -38 -23 -38 -23 0 -34 16 -26 35 7 18 43 20 49 3z m-1225 -204
c26 -18 28 -36 7 -54 -14 -12 -14 -15 1 -31 10 -11 12 -19 7 -19 -6 0 -16 7
-23 15 -7 8 -21 15 -31 15 -11 0 -19 -7 -19 -15 0 -8 -4 -15 -10 -15 -6 0 -10
27 -10 60 0 59 0 60 28 60 15 0 38 -7 50 -16z m132 6 c0 -5 -13 -10 -30 -10
-20 0 -30 -5 -30 -15 0 -9 9 -15 24 -15 14 0 28 -4 31 -10 4 -6 -7 -10 -24
-10 -21 0 -31 -5 -31 -15 0 -10 10 -15 29 -15 17 0 33 -4 36 -10 4 -6 -12 -10
-39 -10 l-46 0 0 60 0 60 40 0 c22 0 40 -4 40 -10z m116 -46 c14 -31 22 -59
19 -63 -4 -3 -11 2 -16 12 -12 21 -65 23 -73 2 -3 -8 -10 -15 -15 -15 -9 0 20
72 42 108 13 19 17 15 43 -44z m74 0 c0 -40 2 -44 24 -44 14 0 28 -4 31 -10 4
-6 -10 -10 -34 -10 l-41 0 0 61 c0 37 4 58 10 54 6 -3 10 -26 10 -51z m220 46
c0 -5 -16 -10 -35 -10 -24 0 -35 -5 -35 -15 0 -10 10 -15 30 -15 17 0 30 -4
30 -10 0 -5 -13 -10 -30 -10 -20 0 -30 -5 -30 -15 0 -10 11 -15 35 -15 19 0
35 -4 35 -10 0 -5 -18 -10 -40 -10 l-40 0 0 60 0 60 40 0 c22 0 40 -4 40 -10z
m100 0 c11 -7 7 -10 -17 -10 -23 0 -33 -5 -33 -15 0 -8 6 -15 14 -15 8 0 24
-8 37 -19 20 -16 21 -21 10 -35 -15 -18 -66 -22 -77 -5 -5 8 0 10 17 6 29 -7
59 8 44 22 -6 5 -19 11 -29 13 -28 5 -43 33 -27 52 15 18 39 20 61 6z m125 0
c3 -5 -3 -10 -14 -10 -18 0 -21 -6 -21 -50 0 -27 -4 -50 -10 -50 -5 0 -10 23
-10 50 0 43 -3 50 -20 50 -11 0 -20 5 -20 10 0 6 20 10 44 10 25 0 48 -4 51
-10z m100 -40 c27 -53 34 -87 11 -57 -17 22 -72 23 -80 1 -4 -9 -9 -14 -12
-11 -7 6 41 117 50 117 3 0 17 -22 31 -50z m135 40 c0 -5 -9 -10 -20 -10 -17
0 -20 -7 -20 -50 0 -27 -4 -50 -10 -50 -5 0 -10 23 -10 50 0 38 -4 50 -15 50
-8 0 -15 5 -15 10 0 6 20 10 45 10 25 0 45 -4 45 -10z m110 0 c0 -5 -16 -10
-35 -10 -24 0 -35 -5 -35 -15 0 -10 10 -15 30 -15 17 0 30 -4 30 -10 0 -5 -13
-10 -30 -10 -20 0 -30 -5 -30 -15 0 -10 11 -15 35 -15 19 0 35 -4 35 -10 0 -5
-18 -10 -40 -10 l-40 0 0 60 0 60 40 0 c22 0 40 -4 40 -10z"/>
<path d="M2080 1505 c0 -23 4 -26 28 -23 19 2 27 9 27 23 0 14 -8 21 -27 23
-24 3 -28 0 -28 -23z"/>
<path d="M2341 1502 c-15 -28 -14 -32 9 -32 21 0 26 16 11 39 -7 11 -11 10
-20 -7z"/>
<path d="M2962 1495 c-11 -23 -9 -25 12 -25 19 0 23 4 19 20 -8 31 -19 32 -31
5z"/>
</g>
</svg>
